<?xml version="1.0" standalone="no"?><!DOCTYPE svg PUBLIC "-//W3C//DTD SVG 1.1//EN" "http://www.w3.org/Graphics/SVG/1.1/DTD/svg11.dtd"><svg class="icon" width="200px" height="200.00px" viewBox="0 0 1024 1024" version="1.1" xmlns="http://www.w3.org/2000/svg"><path fill="#e6e6e6" d="M705.985598 189.086519c-103.210663 6.255471-155.699108 63.48694-178.759313 99.564623 0.788969 3.075035 1.571798 6.199189 2.344395 9.386788 18.770506 77.461209 22.521946 146.926304 11.148921 206.467375-1.357927 7.110955-2.700505 14.071484-4.0175 20.902052-12.041244 62.439074-21.551852 111.757317-22.229281 164.645874-0.535189 41.729403 4.574179 83.030042 16.240893 129.254829C1113.772095 460.944184 856.355327 179.972954 705.985598 189.086519zM496.509702 517.656837c1.311879-6.807033 2.650363-13.745049 4.004197-20.831444 16.174378-84.677565-6.054903-179.071422-23.322172-234.133481-28.874631-32.720216-78.552054-68.719104-159.179372-73.605392C168.12051 180.00263-88.146061 459.169771 487.780901 815.910685 461.178009 700.891068 475.894176 624.566752 496.509702 517.656837z" /></svg>