<?xml version="1.0" standalone="no"?><!DOCTYPE svg PUBLIC "-//W3C//DTD SVG 1.1//EN" "http://www.w3.org/Graphics/SVG/1.1/DTD/svg11.dtd"><svg class="icon" width="200px" height="200.00px" viewBox="0 0 1024 1024" version="1.1" xmlns="http://www.w3.org/2000/svg"><path fill="#e6e6e6" d="M976.896 1013.76H41.984c-14.336 0-25.6-11.264-25.6-25.6V88.576c0-14.336 11.264-25.6 25.6-25.6h166.912c14.336 0 25.6 11.264 25.6 25.6s-11.264 25.6-25.6 25.6H67.584V962.56h883.712V114.176h-141.312c-14.336 0-25.6-11.264-25.6-25.6s11.264-25.6 25.6-25.6h166.912c14.336 0 25.6 11.264 25.6 25.6V988.16c0 14.336-11.264 25.6-25.6 25.6z"  /><path fill="#e6e6e6" d="M240.64 785.92c-6.144 0-12.288-2.048-16.896-6.144-10.752-9.216-11.776-25.6-2.048-36.352l169.472-192.512c4.608-5.12 10.752-8.192 17.408-8.704 6.656-0.512 13.312 2.048 18.432 6.144l139.264 123.392 175.616-186.368c9.728-10.24 26.112-10.752 36.352-1.024 10.24 9.728 10.752 26.112 1.024 36.352l-192.512 204.288c-9.728 10.24-25.088 10.752-35.84 1.536l-138.24-122.88-152.576 173.056c-5.12 6.144-12.288 9.216-19.456 9.216zM976.896 333.312H41.984c-14.336 0-25.6-11.264-25.6-25.6s11.264-25.6 25.6-25.6h934.912c14.336 0 25.6 11.264 25.6 25.6s-11.264 25.6-25.6 25.6zM319.488 163.84c-14.336 0-25.6-11.264-25.6-25.6V33.28c0-14.336 11.264-25.6 25.6-25.6s25.6 11.264 25.6 25.6V138.24c0 14.336-11.264 25.6-25.6 25.6zM509.44 163.84c-14.336 0-25.6-11.264-25.6-25.6V33.28c0-14.336 11.264-25.6 25.6-25.6s25.6 11.264 25.6 25.6V138.24c0 14.336-11.264 25.6-25.6 25.6zM696.32 163.84c-14.336 0-25.6-11.264-25.6-25.6V33.28c0-14.336 11.264-25.6 25.6-25.6s25.6 11.264 25.6 25.6V138.24c0 14.336-11.264 25.6-25.6 25.6z"  /></svg>