<?xml version="1.0" standalone="no"?><!DOCTYPE svg PUBLIC "-//W3C//DTD SVG 1.1//EN" "http://www.w3.org/Graphics/SVG/1.1/DTD/svg11.dtd"><svg class="icon" width="200px" height="200.00px" viewBox="0 0 1024 1024" version="1.1" xmlns="http://www.w3.org/2000/svg"><path fill="#e6e6e6" d="M664.5248 205.952 226.944 205.952c-10.5984 0-19.2 8.6016-19.2 19.2s8.6016 19.2 19.2 19.2l437.6064 0c10.5984 0 19.2-8.6016 19.2-19.2S675.1232 205.952 664.5248 205.952zM683.7248 362.752c0-10.5984-8.6016-19.2-19.2-19.2L226.944 343.552c-10.5984 0-19.2 8.6016-19.2 19.2s8.6016 19.2 19.2 19.2l437.6064 0C675.1232 381.952 683.7248 373.3504 683.7248 362.752zM226.9184 481.152c-10.5984 0-19.2 8.6016-19.2 19.2s8.6016 19.2 19.2 19.2l280.832 0c10.5984 0 19.2-8.6016 19.2-19.2s-8.6016-19.2-19.2-19.2L226.9184 481.152zM446.9248 618.752 226.9184 618.752c-10.5984 0-19.2 8.6016-19.2 19.2s8.6016 19.2 19.2 19.2l220.0064 0c10.5984 0 19.2-8.6016 19.2-19.2S457.5232 618.752 446.9248 618.752zM876.2624 814.7456l-49.152 0-95.9232-134.2208c39.4752-13.9008 67.9936-51.1744 67.9936-95.3344 0-55.9616-45.4912-101.4784-101.4528-101.4784s-101.4528 45.5168-101.4528 101.4784c0 44.16 28.544 81.4336 67.9936 95.3344l-95.9488 134.2208-49.1264 0c-24.704 0-44.8 20.096-44.8 44.8l0 72.1664c0 24.704 20.096 44.8 44.8 44.8l357.0432 0c24.704 0 44.8-20.096 44.8-44.8l0-72.1664C921.0624 834.8416 900.9664 814.7456 876.2624 814.7456zM634.6752 585.1904c0-34.7648 28.2624-63.0784 63.0528-63.0784s63.0528 28.288 63.0528 63.0784c0 34.56-27.9552 62.6688-62.464 63.0016-0.4096 0-0.768 0-1.1776 0C662.656 647.8592 634.6752 619.776 634.6752 585.1904zM691.84 708.0448l11.2896-0.7168 76.7744 107.4176-164.352 0L691.84 708.0448zM882.6624 931.7376c0 3.4816-2.9184 6.4-6.4 6.4L519.2192 938.1376c-3.4816 0-6.4-2.9184-6.4-6.4l0-72.1664c0-3.4816 2.9184-6.4 6.4-6.4l59.0336 0 239.0016 0 0.512 0 58.5216 0c3.4816 0 6.4 2.9184 6.4 6.4L882.688 931.7376zM136.5248 851.2 136.5248 99.2c0-3.4816 2.9184-6.4 6.4-6.4l611.2 0c3.4816 0 6.4 2.9184 6.4 6.4l0 361.1904c14.4128 7.2704 27.3664 16.9472 38.4 28.544L798.9248 99.2c0-24.704-20.096-44.8-44.8-44.8L142.9248 54.4c-24.704 0-44.8 20.096-44.8 44.8L98.1248 851.2c0 24.704 20.096 44.8 44.8 44.8l293.0688 0 0-36.4544c0-0.6656 0.1792-1.28 0.2048-1.9456L142.9248 857.6C139.4688 857.6 136.5248 854.6816 136.5248 851.2z" /></svg>