<?xml version="1.0" standalone="no"?><!DOCTYPE svg PUBLIC "-//W3C//DTD SVG 1.1//EN" "http://www.w3.org/Graphics/SVG/1.1/DTD/svg11.dtd"><svg class="icon" width="200px" height="200.00px" viewBox="0 0 1024 1024" version="1.1" xmlns="http://www.w3.org/2000/svg"><path fill="#e6e6e6" d="M893.155556 625.777778V133.688889c0-73.955556-59.733333-133.688889-128-133.688889H270.222222C190.577778 0 130.844444 59.733333 130.844444 133.688889V625.777778c0 65.422222 36.977778 147.911111 85.333334 190.577778l196.266666 170.666666c25.6 22.755556 62.577778 36.977778 99.555556 36.977778 36.977778 0 68.266667-11.377778 93.866667-34.133333l196.266666-176.355556c34.133333-28.444444 65.422222-79.644444 79.644445-130.844444 2.844444-2.844444 2.844444-8.533333 2.844444-11.377778 5.688889-14.222222 8.533333-31.288889 8.533334-45.511111zM822.044444 133.688889v480.711111l-119.466666-65.422222V71.111111h56.888889c34.133333 0 62.577778 28.444444 62.577777 62.577778z m-426.666666-62.577778h236.088889v466.488889L512 628.622222l-116.622222-71.111111V71.111111z m-128 0h59.733333v483.555556l-122.311111 65.422222V133.688889c-2.844444-34.133333 25.6-62.577778 62.577778-62.577778z m492.088889 691.2l-164.977778 136.533333c-22.755556-17.066667-51.2-28.444444-85.333333-28.444444s-65.422222 14.222222-91.022223 34.133333l-156.444444-139.377777c-17.066667-17.066667-36.977778-45.511111-48.355556-73.955556l139.377778-73.955556 136.533333 85.333334c11.377778 8.533333 28.444444 8.533333 39.822223 0l122.311111-93.866667c2.844444 0 5.688889 0 5.688889 2.844445l145.066666 79.644444c-5.688889 25.6-22.755556 54.044444-42.666666 71.111111z"  /></svg>