<?xml version="1.0" standalone="no"?><!DOCTYPE svg PUBLIC "-//W3C//DTD SVG 1.1//EN" "http://www.w3.org/Graphics/SVG/1.1/DTD/svg11.dtd"><svg class="icon" width="200px" height="200.00px" viewBox="0 0 1024 1024" version="1.1" xmlns="http://www.w3.org/2000/svg"><path fill="#e6e6e6" d="M660.157341 287.933805c24.717961 0 44.754297 20.037359 44.754297 44.754297 0 11.649318-4.453429 22.261003-11.746532 30.221302-18.329461-23.839965-23.509437-45.458331-66.573231-59.82248C634.793674 293.79121 646.790916 287.933805 660.157341 287.933805zM734.747153 869.734544c0-125.873826-98.593506-238.689241-223.769436-238.689241-125.164674 0-208.850655 112.815415-208.850655 238.689241-11.746532 0.527003-28.491914-0.375553-44.757367 0 0-144.769174 109.667725-283.443537 253.606998-283.443537 143.964856 0 268.523733 138.674363 268.523733 283.443537C765.045203 870.617657 748.299821 868.823801 734.747153 869.734544zM80.277348 783.712355c-9.295714 0-16.84055-7.715729-16.84055-17.231453 0-116.562762 74.198909-215.732389 176.803775-250.659877-54.286394-29.785374-87.294159-85.983303-87.294159-153.298432 0-97.368608 68.935022-179.016163 164.098405-179.016163 52.242851 0 105.603153 23.831778 138.578172 65.390289 5.853311 7.386224 4.756327 18.237363-2.466168 24.227798-7.242961 6.002714-17.830087 4.871961-23.699772-2.512217-26.53126-33.450856-70.365604-57.267285-112.411209-57.267285-76.589352 0-134.408199 68.375274-134.408199 146.738016 0 78.361719 57.818847 136.704498 134.408199 136.704498-0.419556 16.781198-0.417509 29.834492 0 44.754297-123.746372 0-219.919758 98.331539-219.919758 224.939075C97.120968 775.996626 89.577155 783.712355 80.277348 783.712355L80.277348 783.712355zM734.747153 586.291007 734.747153 496.78753l-14.919804 0 0-44.754297 59.673078 0 0 59.668984 59.672054-59.668984 59.672054 0 14.917758-14.917758L913.762293 213.346039l-14.917758-14.919804L555.73099 198.426235l-14.917758 14.919804 0 44.754297-44.75225 14.914688 0-89.50757c0-9.417487 23.064298-29.834492 32.379455-29.834492l400.240637 0c9.31618 0 29.835516 20.417005 29.835516 29.834492l0 283.441491c0 9.417487-20.519336 29.838585-29.835516 29.838585l-74.589812 0-89.50757 89.503477L734.747153 586.291007zM809.336966 287.933805c24.717961 0 44.754297 20.036335 44.754297 44.754297 0 24.715915-20.036335 44.754297-44.754297 44.754297s-44.754297-20.037359-44.754297-44.754297C764.582669 307.97014 784.620028 287.933805 809.336966 287.933805zM518.436596 287.933805c94.746898 0 171.557284 76.80834 171.557284 171.555238s-76.809363 171.555238-171.557284 171.555238c-94.748944 0-171.557284-76.80834-171.557284-171.555238S423.687652 287.933805 518.436596 287.933805zM518.436596 332.688101c70.030983 0 126.801964 56.769958 126.801964 126.801964s-56.769958 126.801964-126.801964 126.801964c-70.03303 0-126.802988-56.769958-126.802988-126.801964S448.403566 332.688101 518.436596 332.688101z" /></svg>