<?xml version="1.0" standalone="no"?><!DOCTYPE svg PUBLIC "-//W3C//DTD SVG 1.1//EN" "http://www.w3.org/Graphics/SVG/1.1/DTD/svg11.dtd"><svg class="icon" width="200px" height="200.00px" viewBox="0 0 1024 1024" version="1.1" xmlns="http://www.w3.org/2000/svg"><path fill="#e6e6e6" d="M511.7952 88.1664c-253.3376 0-459.008 205.6704-459.008 459.008s205.6704 459.008 459.008 459.008 459.008-205.6704 459.008-459.008c0-254.1568-205.6704-459.008-459.008-459.008z m115.1488 544.5632H483.84c-31.2832 0-57.6-25.4976-57.6-57.6l41.0112-224.8192c0-31.2832 25.4976-57.6 57.6-57.6s57.6 25.4976 57.6 57.6l-30.1568 167.2704h74.7008c31.2832 0 57.6 25.4976 57.6 57.6-0.8704 31.232-26.368 57.5488-57.6512 57.5488zM311.0912 59.392s-116.7872-92.1088-229.4784 0-28.7744 229.4784-28.7744 229.4784C135.0656 134.2464 311.0912 59.392 311.0912 59.392zM942.0288 59.392c-112.6912-92.1088-229.4784 0-229.4784 0s176.8448 74.8544 258.304 228.6592c-0.0512 0 83.8656-136.5504-28.8256-228.6592zM942.0288 59.392z" /></svg>