<?xml version="1.0" standalone="no"?><!DOCTYPE svg PUBLIC "-//W3C//DTD SVG 1.1//EN" "http://www.w3.org/Graphics/SVG/1.1/DTD/svg11.dtd"><svg class="icon" width="200px" height="200.00px" viewBox="0 0 1024 1024" version="1.1" xmlns="http://www.w3.org/2000/svg"><path fill="#e6e6e6" d="M704.236256 584.190159 461.8406 584.190159l0-25.575492 0-38.353516L461.8406 316.217988l63.929008 0 0 204.043163 178.467671 0L704.237279 584.190159zM512 127.949091c211.504088 0 383.572002 172.068937 383.572002 383.572002s-172.068937 383.572002-383.572002 383.572002-383.572002-172.068937-383.572002-383.572002S300.495912 127.949091 512 127.949091M512 64.021106c-247.145843 0-447.50101 200.355167-447.50101 447.50101s200.355167 447.50101 447.50101 447.50101c247.151983 0 447.50101-200.355167 447.50101-447.50101S759.15096 64.021106 512 64.021106L512 64.021106zM465.395566 315.740104l63.929008 0 0 242.396679-63.929008 0 0-242.396679ZM465.395566 519.783267l242.396679 0 0 63.929008-242.396679 0 0-63.929008Z" /></svg>