<?xml version="1.0" standalone="no"?><!DOCTYPE svg PUBLIC "-//W3C//DTD SVG 1.1//EN" "http://www.w3.org/Graphics/SVG/1.1/DTD/svg11.dtd"><svg t="1523413455679" class="icon" style="" viewBox="0 0 1024 1024" version="1.1" xmlns="http://www.w3.org/2000/svg" p-id="1638" xmlns:xlink="http://www.w3.org/1999/xlink" width="200" height="200"><defs><style type="text/css"></style></defs><path d="M376.6784 726.4768c0-33.4848 5.2224-65.792 15.104-96.1536 9.8816-30.8736 24.4224-58.7776 42.1888-84.48 18.3808-25.8048 39.5264-48.3328 64.5632-68.2496 24.32-20.0704 52.0704-35.584 81.7152-47.6672 2.048-4.5568 3.2768-9.0624 6.0416-16.2304l4.5056-12.3392c0.6656-3.84 2.048-7.68 3.2768-10.8544 6.0416-2.048 11.264-5.2224 16.3328-9.7792 4.5568-3.84 8.4992-9.728 12.4928-16.7424 3.2768-7.1168 6.0416-17.4592 7.2704-29.6448 0.6656-9.0624 0.6656-16.7424-0.6656-23.1936-1.9456-6.4512-3.2768-11.52-6.0416-15.5136-2.6112-4.5568-6.0416-8.3968-9.8816-11.008 0-23.9104-2.048-47.104-4.5056-69.632-3.2768-20.0704-7.8336-41.216-15.104-63.1808-6.6048-21.9648-17.8688-42.5984-32.9728-60.5696-6.6048-7.68-15.7696-16.2304-26.9312-23.9104-11.264-7.68-24.32-14.848-38.7072-21.2992-14.5408-5.7856-30.208-10.9568-46.6944-14.848-16.3328-3.84-32.9728-5.888-49.9712-5.888-13.1584 0-26.9312 1.2288-41.472 3.2768-14.5408 1.9456-28.9792 5.7856-43.52 11.52-14.5408 5.7856-28.9792 14.1312-42.1376 23.9104-13.2096 9.728-25.7024 22.6816-37.4784 38.7072-11.8272 16.7424-21.1456 35.584-26.9312 56.7296-6.0416 21.2992-9.8816 41.216-12.4928 59.3408-2.048 21.9648-3.2768 43.264-3.2768 65.0752-5.2224 5.888-8.4992 11.52-11.264 17.9712-2.6112 6.4512-4.5568 13.568-5.2224 21.2992-0.6656 7.68 0.6656 16.7424 3.2768 26.5216 2.6112 10.2912 6.6048 17.4592 10.5984 22.6816 3.9936 5.2224 7.8336 9.728 11.264 12.3392 4.5568 2.6112 8.4992 4.5056 12.4928 5.888 2.6112 9.0624 6.0416 17.9712 8.4992 26.5216 2.6112 7.68 6.0416 14.848 9.8816 21.9648 3.2768 7.1168 7.8336 12.9024 12.4928 16.7424 9.8816 8.3968 19.0976 16.2304 26.9312 23.9104 7.8336 7.68 12.4928 18.7904 13.8752 31.5904 0.6656 9.7792 0.6656 17.4592 0.6656 25.1392 0 7.168-2.048 14.1312-4.5568 21.2992-3.2768 7.168-7.8336 14.1312-14.5408 21.2992-6.7072 7.1168-15.7696 14.1312-28.416 21.9648-9.8816 6.4512-21.7088 11.52-34.2016 16.1792-12.4928 4.5568-25.7024 8.3968-38.8608 12.3392-13.8752 3.84-26.9312 7.68-39.5776 11.52-12.4928 4.5568-24.32 9.728-34.8672 16.2304-10.5984 7.168-19.7632 14.848-26.9312 23.9104-7.2704 9.0624-11.8272 20.5824-14.5408 34.7648-6.0416 37.376-7.2704 67.6864-3.9936 91.4432 3.2768 23.9104 7.8336 38.0416 14.5408 42.5984 3.9936 2.6112 12.4928 5.888 25.7024 8.3968 13.2096 2.6112 29.6448 5.888 48.7424 8.3968 19.7632 3.2768 40.8064 5.888 64.5632 8.3968 23.6032 2.6112 47.5136 5.2224 71.1168 7.168 24.4224 1.9456 47.5136 3.1744 69.888 4.4032 22.3744 1.2288 42.1888 2.048 59.3408 2.048h23.1936c-13.8752-23.9104-25.1392-49.7152-32.9728-76.7488-7.8336-27.4432-11.8272-55.8592-11.8272-85.5552z m0 0" p-id="1639" fill="#dbdbdb"></path><path d="M959.3856 623.36c-14.5408-32.9728-34.2016-61.2352-59.3408-86.3744-24.9856-24.4224-53.9648-43.8272-87.5008-57.9584-33.6384-14.1312-69.0688-21.2992-107.4176-21.2992-38.1952 0-74.4448 7.1168-107.9296 21.2992-33.6384 14.1312-62.6176 33.4848-87.5008 57.9584-24.9856 24.4224-44.7488 53.5552-59.3408 86.3744-14.5408 32.9728-21.7088 67.6864-21.7088 105.0624s7.2704 72.2432 21.7088 105.0624c14.5408 32.9728 34.2016 61.2352 59.3408 86.3744 24.9856 24.4224 53.9648 43.8272 87.5008 57.9584 33.6384 14.1312 69.888 21.2992 107.9296 21.2992 38.0416 0 73.728-7.1168 107.4176-21.2992 33.6384-14.1312 62.6176-33.4848 87.5008-57.9584 25.1392-24.4224 44.7488-53.5552 59.3408-86.3744 14.5408-32.9728 21.7088-67.6864 21.7088-105.0624 0-37.2224-7.2704-72.0896-21.7088-105.0624z m-178.4832 224.8192c-10.5984 0-21.1456-4.096-29.1328-12.0832l-82.1248-82.432c-7.424-7.2704-12.0832-17.7152-12.0832-28.9792v-164.4032c0-22.784 18.3808-41.0624 41.0624-41.0624 22.6816 0 41.0624 18.3808 41.0624 41.0624v147.5072l70.1952 70.1952c16.0768 16.0768 16.0768 42.0352 0 58.112-7.9872 7.936-18.432 12.0832-28.9792 12.0832z m0 0" p-id="1640" fill="#dbdbdb"></path></svg>