<?xml version="1.0" standalone="no"?><!DOCTYPE svg PUBLIC "-//W3C//DTD SVG 1.1//EN" "http://www.w3.org/Graphics/SVG/1.1/DTD/svg11.dtd"><svg class="icon" width="200px" height="200.00px" viewBox="0 0 1024 1024" version="1.1" xmlns="http://www.w3.org/2000/svg"><path fill="#e6e6e6" d="M614.84 89.599c85.46-42.521 191.999-23.278 256.64 52.699 62.14 73.011 66.346 175.864 17.175 252.606-12.245 0.043-25.069-2.053-38.196-5.972-52.092-15.542-106.511-58.221-150.317-110.832-43.937-52.727-76.121-114.288-83.697-167.478-1.026-7.244-1.575-14.27-1.605-21.023zM183.277 673.503c-0.65 37.807 18.39 58.627 54.853 64.452l401.174-269.607c-55.417-35.016-102.607-92.76-127.041-153.483L183.277 673.503z m13.099 85.561c-33.353 34.785-43.416 70.844-35.552 97.735 3.21 11.001 9.616 20.502 18.766 27.571 9.687 7.488 22.743 12.42 38.674 13.792 54.361 4.671 135.657-30.433 230.659-136.886C544.402 654.29 630.44 603.529 700.922 591.152c42.649-7.475 80.095-1.257 111.194 15.08 31.084 16.337 55.171 42.664 71.234 75.383 25.069 51.093 30.245 118.177 11.189 186.245l-55.763-15.644c15.181-54.245 11.653-106.495-7.345-145.199-10.67-21.745-26.342-39.05-46.293-49.547-19.967-10.497-44.892-14.328-74.226-9.18-58.727 10.294-132.866 55.373-218.688 151.532-109.184 122.34-208.898 162.143-278.716 156.157-27.469-2.357-50.919-11.61-69.295-25.821-18.94-14.646-32.255-34.396-38.935-57.253-13.287-45.442 0.289-102.78 49.372-153.96l41.726 40.119z m660.039-326.86C791.529 410.72 726.7 360.119 675.794 298.991c-46.351-55.648-82.018-120.955-96.419-181.749-38.096 46.901-53.58 106.986-45.195 164.703 23.306 70.047 83.783 142.568 151.184 173.536 56.502 16.353 118.888 9.021 171.051-23.277z" /></svg>