<?xml version="1.0" standalone="no"?><!DOCTYPE svg PUBLIC "-//W3C//DTD SVG 1.1//EN" "http://www.w3.org/Graphics/SVG/1.1/DTD/svg11.dtd"><svg class="icon" width="200px" height="200.00px" viewBox="0 0 1024 1024" version="1.1" xmlns="http://www.w3.org/2000/svg"><path fill="#e6e6e6" d="M14.2 5.5c0.6 0 1 0.5 1 1v7.7c0 0.6-0.4 1-1 1H1.8c-0.6 0-1-0.5-1-1V6.5c0-0.6 0.4-1 1-1h12.4m0-0.5H1.8C1 5 0.3 5.7 0.3 6.5v7.7c0 0.8 0.7 1.5 1.5 1.5h12.3c0.8 0 1.5-0.7 1.5-1.5V6.5c0.1-0.8-0.6-1.5-1.4-1.5z"  /><path fill="#e6e6e6" d="M6.5 10.1h3v0.5h-3z"  /><path fill="#e6e6e6" d="M7.7 8.8h0.5v3h-0.5zM9.2 3.1c0.3 0 0.5 0.2 0.5 0.5V5H6.2V3.6c0-0.3 0.2-0.5 0.5-0.5h2.5m0-0.5H6.7c-0.6 0-1 0.4-1 1v1.9h4.5V3.6c0-0.5-0.4-1-1-1z"  /><path fill="#e6e6e6" d="M789.4 174.7c16.1 0 29.2 13.1 29.2 29.2v697.4c0 16.1-13.1 29.2-29.2 29.2H234.6c-16.1 0-29.2-13.1-29.2-29.2V203.9c0-16.1 13.1-29.2 29.2-29.2h554.8m0-29.2H234.6c-32.1 0-58.4 26.3-58.4 58.4v697.4c0 32.1 26.3 58.4 58.4 58.4h554.8c32.1 0 58.4-26.3 58.4-58.4V203.9c0-32.1-26.3-58.4-58.4-58.4z"  /><path fill="#e6e6e6" d="M570.4 112.8c16.1 0 29.2 13.1 29.2 29.2v12.7c-2.7 0.3-6.8 0.6-13.3 0.6H437.7c-6.5 0-10.7-0.3-13.3-0.7V142c0-16.1 13.1-29.2 29.2-29.2h116.8m0-29.3H453.6c-32.1 0-58.4 26.3-58.4 58.4V158c0 23.4 19.1 26.4 42.5 26.4h148.6c23.5 0 42.5-2.9 42.5-26.4v-16c0-32.2-26.2-58.5-58.4-58.5z"  /><path fill="#e6e6e6" d="M552.1 103.3h-79c-10.8 0-19.5-8.7-19.5-19.5s8.7-19.5 19.5-19.5h79c10.8 0 19.5 8.7 19.5 19.5 0 10.7-8.7 19.5-19.5 19.5zM278.3 276.9h467.4v29.2H278.3zM278.3 627.5h467.4v29.2H278.3zM278.3 365h467.4v29.2H278.3zM279.2 452.2h467.4v29.2H279.2zM278.3 539h467.4v29.2H278.3zM278.3 715.1h276v29.2h-276z"  /></svg>