<?xml version="1.0" standalone="no"?><!DOCTYPE svg PUBLIC "-//W3C//DTD SVG 1.1//EN" "http://www.w3.org/Graphics/SVG/1.1/DTD/svg11.dtd"><svg t="1523414587080" class="icon" style="" viewBox="0 0 1024 1024" version="1.1" xmlns="http://www.w3.org/2000/svg" p-id="3662" xmlns:xlink="http://www.w3.org/1999/xlink" width="200" height="200"><defs><style type="text/css"></style></defs><path d="M371.981418 268.092292 648.410447 268.092292C695.497956 268.092292 733.869187 229.793331 733.869187 182.729131L733.869187 178.143699C733.869187 175.236717 733.724655 172.332066 733.412272 169.498517 729.4516 130.214632 698.713822 98.784494 659.840222 93.547497 656.118494 93.043962 652.324499 92.658152 648.409281 92.658152L611.359833 92.658152 611.359833 85.816138C611.359833 38.727461 573.059706 0.356234 525.899928 0.356234L494.444147 0.356234C447.332159 0.356234 409.007555 38.727461 409.007555 85.816138L409.007555 92.658152 371.933629 92.658152C368.068532 92.658152 364.296682 93.043961 360.527164 93.547497 321.674547 98.783328 290.915789 130.165678 286.978426 169.449562 286.690525 172.308755 286.521515 175.188928 286.521515 178.094744L286.521515 182.680176C286.521512 229.793331 324.895072 268.092292 371.981418 268.092292L371.981418 268.092292ZM874.05238 71.024798 748.205943 71.024798 748.205943 116.046883 874.05238 116.046884C882.599652 116.046884 889.540745 122.985643 889.540745 131.535247L889.540745 963.076585C889.540745 971.625023 882.599657 978.564949 874.05238 978.564949L146.338317 978.564949C137.791045 978.564949 130.849955 971.625023 130.849955 963.028799L130.849955 131.487457C130.849955 122.96233 137.789878 116.022406 146.338317 116.022406L272.139296 116.022406 272.139296 70.975844 146.338317 70.975845C112.962808 70.975845 85.852346 98.134095 85.852346 131.438502L85.852346 962.93322C85.852346 996.308725 112.961643 1023.443666 146.338317 1023.443666L874.05238 1023.443666C907.43139 1023.443666 934.540681 996.333204 934.540681 962.981006L934.540681 131.487457C934.53952 98.134095 907.431384 71.024798 874.05238 71.024798L874.05238 71.024798ZM305.250215 459.301528 715.140483 459.301528C740.472252 459.301528 761.002957 438.748677 761.002957 413.414575 761.002957 388.082804 740.473418 367.549768 715.140483 367.549768L305.250215 367.549768C279.918444 367.549768 259.364427 388.081639 259.364427 413.414575 259.364427 438.747512 279.918445 459.301528 305.250215 459.301528L305.250215 459.301528ZM715.140483 557.727457 305.250215 557.727457C279.918444 557.727457 259.364427 578.258159 259.364427 603.589934 259.364427 628.922869 279.918445 649.476887 305.250215 649.476887L715.140483 649.476887C740.472252 649.476887 761.002957 628.922869 761.002957 603.589934 761.002957 578.259325 740.472252 557.727457 715.140483 557.727457L715.140483 557.727457ZM715.140483 747.905149 305.250215 747.905149C279.918444 747.905149 259.364427 768.433522 259.364427 793.767623 259.364427 819.126204 279.918445 839.656909 305.250215 839.656909L715.140483 839.656909C740.472252 839.656909 761.002957 819.100558 761.002957 793.767623 761.002957 768.434688 740.472252 747.905149 715.140483 747.905149L715.140483 747.905149Z" p-id="3663" fill="#dbdbdb"></path></svg>