<?xml version="1.0" standalone="no"?><!DOCTYPE svg PUBLIC "-//W3C//DTD SVG 1.1//EN" "http://www.w3.org/Graphics/SVG/1.1/DTD/svg11.dtd"><svg class="icon" width="200px" height="200.00px" viewBox="0 0 1024 1024" version="1.1" xmlns="http://www.w3.org/2000/svg"><path fill="#e6e6e6" d="M264.2 527.6 191 785.9c-3.5 12.5-0.1 25.9 9 35.2 6.7 6.8 16.1 10.7 25.6 10.7 3.2 0 6.4-0.4 9.4-1.2L496.1 760c6.1-1.6 11.6-4.9 16.1-9.3L1002.9 260c6.8-6.8 10.6-15.9 10.6-25.5 0-9.6-3.8-18.7-10.6-25.5L815.1 21.3c-6.8-6.8-15.9-10.6-25.5-10.6-9.6 0-18.7 3.8-25.5 10.6L273.4 512C269.1 516.3 265.9 521.7 264.2 527.6zM318.5 570.8 453 705.4l-187 50.6L318.5 570.8zM789.6 86.3l148.2 148.2L505.3 667.1 357 518.9 789.6 86.3zM992 613.6c-17.7 0-32 14.3-32 32L960 851c0 60.1-49 109-109.2 109L173.7 960c-60.2 0-109.2-48.9-109.2-109L64.5 162.9c5.1-51.2 47.4-93.3 98.8-98.4L515 64.5c17.7 0 32-14.3 32-32 0-17.7-14.3-32-32-32L205.7 0.5 205.7 0l-32 0C127.9 0 84.5 18.1 51.4 51 18.3 84 0 127.4 0 173.2l0 32 0.5 0L0.5 851c0 95.4 77.7 173 173.2 173l677.2 0c46 0 89.4-18 122.2-50.7 32.8-32.8 50.9-76.2 50.9-122.2L1024 645.6C1024 627.9 1009.7 613.6 992 613.6z" /></svg>