<?xml version="1.0" standalone="no"?><!DOCTYPE svg PUBLIC "-//W3C//DTD SVG 1.1//EN" "http://www.w3.org/Graphics/SVG/1.1/DTD/svg11.dtd"><svg class="icon" width="200px" height="200.00px" viewBox="0 0 1024 1024" version="1.1" xmlns="http://www.w3.org/2000/svg"><path fill="#e6e6e6" d="M601.025365 652.670707l0.287318-75.392144 145.756229-176.010774 0 0 5.516498-5.459035-120.357351-121.822671-6.177329 6.091134-40.052076-14.078563 8.274747-43.241302L542.613692 237.525477l-23.761167-49.820875-44.131987 45.999551-34.190797-39.6211-16.089787 52.320539-54.877666-17.957351 20.686869 46.200673L350.312009 285.881033l33.58743 30.398204c-1.436588 4.798204-2.93064 9.567677-3.735129 14.567003-1.034343 6.206061-1.608979 12.641975-1.608979 19.164085 0 64.301684 52.061953 116.334905 116.363636 116.334905 64.129293 0 116.219978-52.033221 116.219978-116.334905 0-1.867565-0.402245-3.59147-0.517172-5.430303l53.900786 54.590348-75.564534 91.223345-36.51807-6.579574c0 0-15.917396 48.901459-59.67587 51.458586-43.787205 2.557127-60.394164-51.458586-60.394164-51.458586l-70.27789 16.578227-56.342985 152.364534L151.574411 652.756902l0 55.423569 33.27138 0 0 315.560943L211.911111 1023.741414 211.911111 708.094276l179.056341 0 0.430976 39.075196-43.959596 0 0 19.020426 37.696072 0 0 243.013244 83.235915 0 0-243.013244 55.078788 0 0 243.013244 83.264646 0 0-243.013244 32.754209 0 0-19.020426-38.500561 0 0.028732-39.075196 202.530191 0 0 315.560943 27.036588 0L830.563412 708.094276l41.57486 0 0-55.423569L601.025365 652.670707zM364.218182 652.670707l25.341414-70.479012 0.804489 70.479012L364.218182 652.670707zM482.765432 105.99147l41.345006 0 0 39.333782-41.345006 0 0-39.333782ZM495.895847 38.960269c1.982492-3.476543 5.37284-5.171717 10.142312-5.171717 7.700112 0 11.521437 3.390348 11.521437 10.171044 0 2.269809-0.632099 4.166105-1.95376 5.746352-1.350393 1.608979-2.959371 2.959371-4.8844 4.07991-1.896296 1.14927-3.936251 2.154882-6.062402 3.10303-2.12615 0.919416-3.964983 1.781369-5.573962 2.585859-3.821324 2.12615-6.751964 4.740741-8.734456 7.958698-1.982492 3.160494-3.390348 6.435915-4.166105 9.740067-0.833221 3.275421-1.206734 6.550842-1.206734 9.711336 0 3.074299 0.057464 5.573962 0.201122 7.585185l36.776655 0c0-2.269809 0.143659-4.223569 0.517172-5.947475 0.316049-1.752637 0.890685-3.246689 1.695174-4.597082 0.775758-1.321661 1.896296-2.61459 3.361616-3.763861 1.46532-1.206734 3.332884-2.413468 5.573962-3.59147 3.304153-1.752637 6.579574-3.41908 9.740067-5.085522 3.189226-1.608979 6.03367-3.706397 8.619529-6.234792 2.61459-2.528395 4.683277-5.660157 6.292256-9.481481 1.580247-3.763861 2.384736-8.64826 2.384736-14.768126-0.258586-4.39596-1.350393-8.96431-3.304153-13.791246-1.896296-4.8844-4.941863-9.309091-9.021773-13.331538-4.137374-4.051178-9.510213-7.355331-16.118519-9.969921C525.029854 1.321661 516.898765 0 507.216162 0c-9.826263 0-18.129742 1.522783-24.967901 4.482155-6.809428 2.959371-12.412121 6.866891-16.779349 11.636364-4.367228 4.798204-7.642649 10.171044-9.740067 16.175982-2.12615 6.004938-3.390348 12.153535-3.763861 18.417059L493.482379 50.71156C493.108866 46.3156 493.884624 42.436813 495.895847 38.960269z" /></svg>