<?xml version="1.0" standalone="no"?><!DOCTYPE svg PUBLIC "-//W3C//DTD SVG 1.1//EN" "http://www.w3.org/Graphics/SVG/1.1/DTD/svg11.dtd"><svg t="1523413229700" class="icon" style="" viewBox="0 0 1024 1024" version="1.1" xmlns="http://www.w3.org/2000/svg" p-id="3821" xmlns:xlink="http://www.w3.org/1999/xlink" width="200" height="200"><defs><style type="text/css"></style></defs><path d="M622.48921 259.37467c0-143.186017-116.088663-259.37467-259.37467-259.37467S103.739869 116.188653 103.739869 259.37467c0 95.490675 51.594961 178.882531 128.387462 223.878137C97.440484 527.148521 0.049995 653.636168 0.049995 803.02158l0 28.997168 511.950005 0L512 501.850991c0-3.999609 0.19998-7.999219 0.599941-11.898838-6.099404-2.399766-12.298799-4.599551-18.598184-6.599356C570.894249 438.257201 622.48921 354.865345 622.48921 259.37467z" p-id="3822" fill="#dbdbdb"></path><path d="M1009.951372 593.842008 878.564203 462.154868c-8.999121-9.099111-21.29792-14.198613-34.19666-14.198613L629.988478 447.956254c-29.79709 0-53.994727 24.097647-53.994727 53.794747l0 466.354458c0 29.6971 24.197637 53.794747 53.994727 53.794747l339.9668 0c29.79709 0 53.994727-24.097647 53.994727-53.794747L1023.950005 627.638707C1023.950005 615.039938 1018.950493 602.841129 1009.951372 593.842008zM691.682453 576.043746l91.891026 0c17.698272 0 31.996875 14.298604 31.996875 31.996875s-14.298604 31.996875-31.996875 31.996875l-91.891026 0c-17.698272 0-31.996875-14.298604-31.996875-31.996875S673.984181 576.043746 691.682453 576.043746zM898.56225 896.012499 691.682453 896.012499c-17.698272 0-31.996875-14.298604-31.996875-31.996875s14.298604-31.996875 31.996875-31.996875l206.879797 0c17.698272 0 31.996875 14.298604 31.996875 31.996875S916.160531 896.012499 898.56225 896.012499zM898.56225 768.024998 691.682453 768.024998c-17.698272 0-31.996875-14.298604-31.996875-31.996875s14.298604-31.996875 31.996875-31.996875l206.879797 0c17.698272 0 31.996875 14.298604 31.996875 31.996875S916.160531 768.024998 898.56225 768.024998z" p-id="3823" fill="#dbdbdb"></path></svg>