<?xml version="1.0" standalone="no"?><!DOCTYPE svg PUBLIC "-//W3C//DTD SVG 1.1//EN" "http://www.w3.org/Graphics/SVG/1.1/DTD/svg11.dtd"><svg class="icon" width="200px" height="154.92px" viewBox="0 0 1322 1024" version="1.1" xmlns="http://www.w3.org/2000/svg"><path fill="#e6e6e6" d="M1237.634613 1024.00125l-1153.925188 0c-46.149507 0-83.709425-36.899854-83.709425-82.221779L0 82.189276c0-45.289423 37.559918-82.189276 83.709425-82.189276l1153.925188 0c46.153257 0 83.744428 36.899854 83.744428 82.189276l0 859.588944C1321.379041 987.101397 1283.78787 1024.00125 1237.634613 1024.00125L1237.634613 1024.00125zM1255.272585 95.700596c0-16.28534-13.607579-29.532884-30.356715-29.532884l-1128.455201 0c-16.749136 0-30.359215 13.247544-30.359215 29.532884l0 832.598808c0 16.28659 13.643832 29.532884 30.359215 29.532884l1128.455201 0c16.749136 0 30.356715-13.246294 30.356715-29.532884L1255.272585 95.700596 1255.272585 95.700596zM726.592206 494.954585 1156.600449 494.954585l0 66.167712L726.592206 561.122297 726.592206 494.954585 726.592206 494.954585zM726.592206 264.110792 1156.600449 264.110792l0 66.200215L726.592206 330.311007 726.592206 264.110792 726.592206 264.110792zM1156.567946 792.826174 165.667428 792.826174l0-66.201465 990.900518 0L1156.567946 792.826174 1156.567946 792.826174zM500.11884 336.787889l0 36.462311c-15.787792 3.472839-30.149194 8.980877-43.085458 16.495361-12.962516 7.541987-27.878973 15.35525-44.774372 23.439789l0 15.626526 106.445395 0c13.51757 0 30.966774-0.570056 52.377615-1.73642l0 34.727141c-22.545952-1.140111-39.996406-1.73642-52.377615-1.73642l-106.445395 0 0 71.189452c0 16.197832-6.204356 26.31757-18.585565 30.386717-12.408712 4.041645-32.684442 7.216955-60.82594 9.550933-3.37908-12.751245-9.029632-25.476238-16.89665-38.19998l45.619455 0c11.246098 0 16.89665-6.376873 16.89665-19.099365l0-53.827757-116.583885 0c-18.031761 0-38.307491 0.597558-60.82594 1.73642l0-34.727141c23.65481 1.166364 43.349233 1.73642 59.137025 1.73642l118.2728 0c0-9.250903-1.135111-19.669421-3.37908-31.254302l60.82594-31.254302L342.983494 366.303272c-21.410841 0-45.619455 0.597558-72.653345 1.73642l0-32.990722c24.763668 1.166364 48.417228 1.73642 70.96443 1.73642L500.11884 336.785389zM474.773865 258.652759l92.929075 0c-1.135111 10.417267-1.690165 22.572204-1.690165 36.463561 0 13.890106 0.553804 27.211407 1.690165 39.93515l-35.482215 0 0-46.880828-292.303545 0 0 48.618498-35.482215 0c1.108858-13.891357 1.690165-27.781463 1.690165-41.671569 0-13.891357-0.581307-26.045043-1.690165-36.463561l234.856685 0c9.002129-16.196582 18.295537-33.261998 27.878973-51.222502 9.557183-17.933001 17.160426-35.595976 22.809728-52.958922 18.004258 10.417267 32.103135 17.960504 42.240375 22.572204C509.674773 203.686141 490.535404 230.871296 474.773865 258.652759zM307.50253 225.662037c-12.408712 9.278406-21.964645 17.960504-28.724055 26.045043-14.652681-21.975896-31.548081-41.075261-50.6887-57.299346 12.381209-9.250903 21.383338-16.766637 27.03389-22.572204C275.399394 189.198476 292.849849 207.15898 307.50253 225.662037zM412.25776 220.452779c-10.13724 8.112042-20.857037 15.626526-32.103135 22.572204-9.029632-18.503057-22.545952-39.338842-40.55146-62.508604 11.246098-8.08454 21.383338-15.030218 30.41297-20.835785C391.401973 187.462057 405.4996 207.727786 412.25776 220.452779z" /></svg>