<?xml version="1.0" standalone="no"?><!DOCTYPE svg PUBLIC "-//W3C//DTD SVG 1.1//EN" "http://www.w3.org/Graphics/SVG/1.1/DTD/svg11.dtd"><svg class="icon" width="200px" height="200.00px" viewBox="0 0 1024 1024" version="1.1" xmlns="http://www.w3.org/2000/svg"><path fill="#e6e6e6" d="M975.36 801.28c0-10.24-10.24-20.48-20.48-20.48h-386.56l320-320c15.36-15.36 15.36-43.52 0-58.88l-284.16-281.6c-15.36-15.36-43.52-15.36-58.88 0l-376.32 376.32c-15.36 15.36-15.36 43.52 0 58.88l225.28 222.72h-322.56c-10.24 0-20.48 10.24-20.48 20.48l-40.96 79.36c0 10.24 10.24 20.48 20.48 20.48h965.12c10.24 0 20.48-10.24 20.48-20.48l-40.96-76.8z m-540.16-335.36l66.56 71.68 135.68-138.24 20.48 23.04-156.16 158.72-89.6-92.16 23.04-23.04z m-145.92 396.8l20.48-33.28h407.04l20.48 33.28h-448z"  /></svg>